# xmcd
#
# Track frame offsets: 
#        150
#        17263
#        34251
#        48006
#        66007
#        102326
#        117299
#        138347
#        161152
#        175108
#        191919
#        211309
#        230809
#        252008
#        270296
#
# Disc length: 3826 seconds
#
# Revision: 0
# Processed by: cddbd v1.5.2PL0 Copyright (c) Steve Scherf et al.
# Submitted via: ExactAudioCopy v0.99pb5
#
DISCID=c80ef00f
DTITLE=Terror Danjah - Undeniable
DYEAR=2010
DGENRE=Grime
TTITLE0=Grand Opening ft. Dream McLean
TTITLE1=Acid
TTITLE2=This Year (Pro Plus) ft. D.O.K, Mz Bratt and Griminal
TTITLE3=Bruzin VIP
TTITLE4=SOS
TTITLE5=I'm Feelin U
TTITLE6=Minimal Dub
TTITLE7=Breaking Bad ft. Baby Face Jay
TTITLE8=Sonar (Selassi Mix)
TTITLE9=Undeniable ft. D Double E
TTITLE10=Leave Me Alone ft. Bruza
TTITLE11=All I Want ft. Lauren Mason
TTITLE12=Time to Let Go
TTITLE13=Story Ending
TTITLE14=Creepy Crawler (Jungle Mix)
EXTD=
EXTT0=
EXTT1=
EXTT2=
EXTT3=
EXTT4=
EXTT5=
EXTT6=
EXTT7=
EXTT8=
EXTT9=
EXTT10=
EXTT11=
EXTT12=
EXTT13=
EXTT14=
PLAYORDER=
